<svg xmlns="http://www.w3.org/2000/svg" version="1.1" xmlns:xlink="http://www.w3.org/1999/xlink" xmlns:svgjs="http://svgjs.com/svgjs" width="1440" height="570" preserveAspectRatio="none" viewBox="0 0 1440 570"><g mask="url(&quot;#SvgjsMask1295&quot;)" fill="none"><rect width="1440" height="570" x="0" y="0" fill="url(#SvgjsRadialGradient1296)"></rect><path d="M-61.97 369.2L-61.97 369.2" stroke="rgba(11, 49, 125, 1)" stroke-width="1.5"></path><path d="M-61.97 369.2L-60.73 545.67" stroke="rgba(11, 49, 125, 1)" stroke-width="1.5"></path><path d="M-61.97 369.2L82.93 526.47" stroke="rgba(11, 49, 125, 1)" stroke-width="1.5"></path><path d="M-61.97 369.2L-105.97 648.16" stroke="rgba(11, 49, 125, 1)" stroke-width="1.5"></path><path d="M-60.73 545.67L-60.73 545.67" stroke="rgba(11, 49, 125, 1)" stroke-width="1.5"></path><path d="M-60.73 545.67L-105.97 648.16" stroke="rgba(11, 49, 125, 1)" stroke-width="1.5"></path><path d="M-60.73 545.67L82.93 526.47" stroke="rgba(11, 49, 125, 1)" stroke-width="1.5"></path><path d="M-105.97 648.16L-105.97 648.16" stroke="rgba(11, 49, 125, 1)" stroke-width="1.5"></path><path d="M-105.97 648.16L67.45 671.12" stroke="rgba(11, 49, 125, 1)" stroke-width="1.5"></path><path d="M-105.97 648.16L82.93 526.47" stroke="rgba(11, 49, 125, 1)" stroke-width="1.5"></path><path d="M82.93 526.47L82.93 526.47" stroke="rgba(11, 49, 125, 1)" stroke-width="1.5"></path><path d="M67.45 671.12L67.45 671.12" stroke="rgba(11, 49, 125, 1)" stroke-width="1.5"></path><path d="M67.45 671.12L194.3 643.26" stroke="rgba(11, 49, 125, 1)" stroke-width="1.5"></path><path d="M67.45 671.12L82.93 526.47" stroke="rgba(11, 49, 125, 1)" stroke-width="1.5"></path><path d="M230.7 406.84L230.7 406.84" stroke="rgba(11, 49, 125, 1)" stroke-width="1.5"></path><path d="M230.7 406.84L246.33 503.46" stroke="rgba(11, 49, 125, 1)" stroke-width="1.5"></path><path d="M230.7 406.84L340.4 392.47" stroke="rgba(11, 49, 125, 1)" stroke-width="1.5"></path><path d="M230.7 406.84L368.67 511.4" stroke="rgba(11, 49, 125, 1)" stroke-width="1.5"></path><path d="M230.7 406.84L82.93 526.47" stroke="rgba(11, 49, 125, 1)" stroke-width="1.5"></path><path d="M230.7 406.84L194.3 643.26" stroke="rgba(11, 49, 125, 1)" stroke-width="1.5"></path><path d="M246.33 503.46L246.33 503.46" stroke="rgba(11, 49, 125, 1)" stroke-width="1.5"></path><path d="M246.33 503.46L368.67 511.4" stroke="rgba(11, 49, 125, 1)" stroke-width="1.5"></path><path d="M194.3 643.26L194.3 643.26" stroke="rgba(11, 49, 125, 1)" stroke-width="1.5"></path><path d="M194.3 643.26L246.33 503.46" stroke="rgba(11, 49, 125, 1)" stroke-width="1.5"></path><path d="M340.4 392.47L340.4 392.47" stroke="rgba(11, 49, 125, 1)" stroke-width="1.5"></path><path d="M340.4 392.47L368.67 511.4" stroke="rgba(11, 49, 125, 1)" stroke-width="1.5"></path><path d="M340.4 392.47L246.33 503.46" stroke="rgba(11, 49, 125, 1)" stroke-width="1.5"></path><path d="M340.4 392.47L493.25 358.48" stroke="rgba(11, 49, 125, 1)" stroke-width="1.5"></path><path d="M340.4 392.47L494.14 500.54" stroke="rgba(11, 49, 125, 1)" stroke-width="1.5"></path><path d="M368.67 511.4L368.67 511.4" stroke="rgba(11, 49, 125, 1)" stroke-width="1.5"></path><path d="M493.25 358.48L493.25 358.48" stroke="rgba(11, 49, 125, 1)" stroke-width="1.5"></path><path d="M493.25 358.48L494.14 500.54" stroke="rgba(11, 49, 125, 1)" stroke-width="1.5"></path><path d="M493.25 358.48L658.33 364.39" stroke="rgba(11, 49, 125, 1)" stroke-width="1.5"></path><path d="M494.14 500.54L494.14 500.54" stroke="rgba(11, 49, 125, 1)" stroke-width="1.5"></path><path d="M494.14 500.54L368.67 511.4" stroke="rgba(11, 49, 125, 1)" stroke-width="1.5"></path><path d="M494.14 500.54L662.91 529.74" stroke="rgba(11, 49, 125, 1)" stroke-width="1.5"></path><path d="M520.13 711.94L520.13 711.94" stroke="rgba(11, 49, 125, 1)" stroke-width="1.5"></path><path d="M520.13 711.94L686.34 697.15" stroke="rgba(11, 49, 125, 1)" stroke-width="1.5"></path><path d="M520.13 711.94L494.14 500.54" stroke="rgba(11, 49, 125, 1)" stroke-width="1.5"></path><path d="M520.13 711.94L662.91 529.74" stroke="rgba(11, 49, 125, 1)" stroke-width="1.5"></path><path d="M520.13 711.94L368.67 511.4" stroke="rgba(11, 49, 125, 1)" stroke-width="1.5"></path><path d="M712.11 220.2L712.11 220.2" stroke="rgba(11, 49, 125, 1)" stroke-width="1.5"></path><path d="M712.11 220.2L658.33 364.39" stroke="rgba(11, 49, 125, 1)" stroke-width="1.5"></path><path d="M712.11 220.2L804.67 395.2" stroke="rgba(11, 49, 125, 1)" stroke-width="1.5"></path><path d="M712.11 220.2L851.7 65.79" stroke="rgba(11, 49, 125, 1)" stroke-width="1.5"></path><path d="M712.11 220.2L493.25 358.48" stroke="rgba(11, 49, 125, 1)" stroke-width="1.5"></path><path d="M658.33 364.39L658.33 364.39" stroke="rgba(11, 49, 125, 1)" stroke-width="1.5"></path><path d="M658.33 364.39L804.67 395.2" stroke="rgba(11, 49, 125, 1)" stroke-width="1.5"></path><path d="M658.33 364.39L662.91 529.74" stroke="rgba(11, 49, 125, 1)" stroke-width="1.5"></path><path d="M662.91 529.74L662.91 529.74" stroke="rgba(11, 49, 125, 1)" stroke-width="1.5"></path><path d="M662.91 529.74L790.63 492.33" stroke="rgba(11, 49, 125, 1)" stroke-width="1.5"></path><path d="M662.91 529.74L686.34 697.15" stroke="rgba(11, 49, 125, 1)" stroke-width="1.5"></path><path d="M686.34 697.15L686.34 697.15" stroke="rgba(11, 49, 125, 1)" stroke-width="1.5"></path><path d="M686.34 697.15L841.16 650.01" stroke="rgba(11, 49, 125, 1)" stroke-width="1.5"></path><path d="M851.7 65.79L851.7 65.79" stroke="rgba(11, 49, 125, 1)" stroke-width="1.5"></path><path d="M851.7 65.79L961.86 47.94" stroke="rgba(11, 49, 125, 1)" stroke-width="1.5"></path><path d="M851.7 65.79L992.55 -56.05" stroke="rgba(11, 49, 125, 1)" stroke-width="1.5"></path><path d="M804.67 395.2L804.67 395.2" stroke="rgba(11, 49, 125, 1)" stroke-width="1.5"></path><path d="M804.67 395.2L790.63 492.33" stroke="rgba(11, 49, 125, 1)" stroke-width="1.5"></path><path d="M804.67 395.2L662.91 529.74" stroke="rgba(11, 49, 125, 1)" stroke-width="1.5"></path><path d="M804.67 395.2L1000.86 396.01" stroke="rgba(11, 49, 125, 1)" stroke-width="1.5"></path><path d="M790.63 492.33L790.63 492.33" stroke="rgba(11, 49, 125, 1)" stroke-width="1.5"></path><path d="M790.63 492.33L841.16 650.01" stroke="rgba(11, 49, 125, 1)" stroke-width="1.5"></path><path d="M790.63 492.33L658.33 364.39" stroke="rgba(11, 49, 125, 1)" stroke-width="1.5"></path><path d="M790.63 492.33L993.79 548.19" stroke="rgba(11, 49, 125, 1)" stroke-width="1.5"></path><path d="M790.63 492.33L686.34 697.15" stroke="rgba(11, 49, 125, 1)" stroke-width="1.5"></path><path d="M841.16 650.01L841.16 650.01" stroke="rgba(11, 49, 125, 1)" stroke-width="1.5"></path><path d="M841.16 650.01L956.81 670.6" stroke="rgba(11, 49, 125, 1)" stroke-width="1.5"></path><path d="M841.16 650.01L993.79 548.19" stroke="rgba(11, 49, 125, 1)" stroke-width="1.5"></path><path d="M841.16 650.01L662.91 529.74" stroke="rgba(11, 49, 125, 1)" stroke-width="1.5"></path><path d="M841.16 650.01L804.67 395.2" stroke="rgba(11, 49, 125, 1)" stroke-width="1.5"></path><path d="M992.55 -56.05L992.55 -56.05" stroke="rgba(11, 49, 125, 1)" stroke-width="1.5"></path><path d="M992.55 -56.05L961.86 47.94" stroke="rgba(11, 49, 125, 1)" stroke-width="1.5"></path><path d="M992.55 -56.05L1139.44 55.87" stroke="rgba(11, 49, 125, 1)" stroke-width="1.5"></path><path d="M961.86 47.94L961.86 47.94" stroke="rgba(11, 49, 125, 1)" stroke-width="1.5"></path><path d="M961.86 47.94L1139.44 55.87" stroke="rgba(11, 49, 125, 1)" stroke-width="1.5"></path><path d="M961.86 47.94L1150.38 200.88" stroke="rgba(11, 49, 125, 1)" stroke-width="1.5"></path><path d="M961.86 47.94L1241.59 44.35" stroke="rgba(11, 49, 125, 1)" stroke-width="1.5"></path><path d="M961.86 47.94L712.11 220.2" stroke="rgba(11, 49, 125, 1)" stroke-width="1.5"></path><path d="M1000.86 396.01L1000.86 396.01" stroke="rgba(11, 49, 125, 1)" stroke-width="1.5"></path><path d="M1000.86 396.01L1109.17 407.52" stroke="rgba(11, 49, 125, 1)" stroke-width="1.5"></path><path d="M1000.86 396.01L993.79 548.19" stroke="rgba(11, 49, 125, 1)" stroke-width="1.5"></path><path d="M993.79 548.19L993.79 548.19" stroke="rgba(11, 49, 125, 1)" stroke-width="1.5"></path><path d="M993.79 548.19L956.81 670.6" stroke="rgba(11, 49, 125, 1)" stroke-width="1.5"></path><path d="M993.79 548.19L1145.35 546.23" stroke="rgba(11, 49, 125, 1)" stroke-width="1.5"></path><path d="M993.79 548.19L1109.17 407.52" stroke="rgba(11, 49, 125, 1)" stroke-width="1.5"></path><path d="M956.81 670.6L956.81 670.6" stroke="rgba(11, 49, 125, 1)" stroke-width="1.5"></path><path d="M956.81 670.6L1112 692.03" stroke="rgba(11, 49, 125, 1)" stroke-width="1.5"></path><path d="M1139.44 55.87L1139.44 55.87" stroke="rgba(11, 49, 125, 1)" stroke-width="1.5"></path><path d="M1139.44 55.87L1241.59 44.35" stroke="rgba(11, 49, 125, 1)" stroke-width="1.5"></path><path d="M1139.44 55.87L1150.38 200.88" stroke="rgba(11, 49, 125, 1)" stroke-width="1.5"></path><path d="M1139.44 55.87L1240.74 204.32" stroke="rgba(11, 49, 125, 1)" stroke-width="1.5"></path><path d="M1150.38 200.88L1150.38 200.88" stroke="rgba(11, 49, 125, 1)" stroke-width="1.5"></path><path d="M1150.38 200.88L1240.74 204.32" stroke="rgba(11, 49, 125, 1)" stroke-width="1.5"></path><path d="M1150.38 200.88L1241.59 44.35" stroke="rgba(11, 49, 125, 1)" stroke-width="1.5"></path><path d="M1150.38 200.88L1109.17 407.52" stroke="rgba(11, 49, 125, 1)" stroke-width="1.5"></path><path d="M1150.38 200.88L1309.22 364.32" stroke="rgba(11, 49, 125, 1)" stroke-width="1.5"></path><path d="M1109.17 407.52L1109.17 407.52" stroke="rgba(11, 49, 125, 1)" stroke-width="1.5"></path><path d="M1109.17 407.52L1145.35 546.23" stroke="rgba(11, 49, 125, 1)" stroke-width="1.5"></path><path d="M1145.35 546.23L1145.35 546.23" stroke="rgba(11, 49, 125, 1)" stroke-width="1.5"></path><path d="M1145.35 546.23L1112 692.03" stroke="rgba(11, 49, 125, 1)" stroke-width="1.5"></path><path d="M1112 692.03L1112 692.03" stroke="rgba(11, 49, 125, 1)" stroke-width="1.5"></path><path d="M1112 692.03L1250.63 657.93" stroke="rgba(11, 49, 125, 1)" stroke-width="1.5"></path><path d="M1297.69 -55.91L1297.69 -55.91" stroke="rgba(11, 49, 125, 1)" stroke-width="1.5"></path><path d="M1297.69 -55.91L1241.59 44.35" stroke="rgba(11, 49, 125, 1)" stroke-width="1.5"></path><path d="M1297.69 -55.91L1449.32 58.82" stroke="rgba(11, 49, 125, 1)" stroke-width="1.5"></path><path d="M1297.69 -55.91L1139.44 55.87" stroke="rgba(11, 49, 125, 1)" stroke-width="1.5"></path><path d="M1297.69 -55.91L1240.74 204.32" stroke="rgba(11, 49, 125, 1)" stroke-width="1.5"></path><path d="M1297.69 -55.91L1150.38 200.88" stroke="rgba(11, 49, 125, 1)" stroke-width="1.5"></path><path d="M1241.59 44.35L1241.59 44.35" stroke="rgba(11, 49, 125, 1)" stroke-width="1.5"></path><path d="M1241.59 44.35L1240.74 204.32" stroke="rgba(11, 49, 125, 1)" stroke-width="1.5"></path><path d="M1240.74 204.32L1240.74 204.32" stroke="rgba(11, 49, 125, 1)" stroke-width="1.5"></path><path d="M1240.74 204.32L1309.22 364.32" stroke="rgba(11, 49, 125, 1)" stroke-width="1.5"></path><path d="M1309.22 364.32L1309.22 364.32" stroke="rgba(11, 49, 125, 1)" stroke-width="1.5"></path><path d="M1309.22 364.32L1457.21 371.52" stroke="rgba(11, 49, 125, 1)" stroke-width="1.5"></path><path d="M1309.22 364.32L1306.66 513.84" stroke="rgba(11, 49, 125, 1)" stroke-width="1.5"></path><path d="M1306.66 513.84L1306.66 513.84" stroke="rgba(11, 49, 125, 1)" stroke-width="1.5"></path><path d="M1306.66 513.84L1250.63 657.93" stroke="rgba(11, 49, 125, 1)" stroke-width="1.5"></path><path d="M1306.66 513.84L1388.7 653.29" stroke="rgba(11, 49, 125, 1)" stroke-width="1.5"></path><path d="M1306.66 513.84L1145.35 546.23" stroke="rgba(11, 49, 125, 1)" stroke-width="1.5"></path><path d="M1250.63 657.93L1250.63 657.93" stroke="rgba(11, 49, 125, 1)" stroke-width="1.5"></path><path d="M1250.63 657.93L1388.7 653.29" stroke="rgba(11, 49, 125, 1)" stroke-width="1.5"></path><path d="M1250.63 657.93L1145.35 546.23" stroke="rgba(11, 49, 125, 1)" stroke-width="1.5"></path><path d="M1250.63 657.93L993.79 548.19" stroke="rgba(11, 49, 125, 1)" stroke-width="1.5"></path><path d="M1449.32 58.82L1449.32 58.82" stroke="rgba(11, 49, 125, 1)" stroke-width="1.5"></path><path d="M1449.32 58.82L1572.79 58.2" stroke="rgba(11, 49, 125, 1)" stroke-width="1.5"></path><path d="M1449.32 58.82L1448.77 228.27" stroke="rgba(11, 49, 125, 1)" stroke-width="1.5"></path><path d="M1449.32 58.82L1241.59 44.35" stroke="rgba(11, 49, 125, 1)" stroke-width="1.5"></path><path d="M1449.32 58.82L1590.55 -101.29" stroke="rgba(11, 49, 125, 1)" stroke-width="1.5"></path><path d="M1448.77 228.27L1448.77 228.27" stroke="rgba(11, 49, 125, 1)" stroke-width="1.5"></path><path d="M1448.77 228.27L1586.23 261.34" stroke="rgba(11, 49, 125, 1)" stroke-width="1.5"></path><path d="M1448.77 228.27L1457.21 371.52" stroke="rgba(11, 49, 125, 1)" stroke-width="1.5"></path><path d="M1448.77 228.27L1553.41 360.01" stroke="rgba(11, 49, 125, 1)" stroke-width="1.5"></path><path d="M1457.21 371.52L1457.21 371.52" stroke="rgba(11, 49, 125, 1)" stroke-width="1.5"></path><path d="M1457.21 371.52L1553.41 360.01" stroke="rgba(11, 49, 125, 1)" stroke-width="1.5"></path><path d="M1457.21 371.52L1586.23 261.34" stroke="rgba(11, 49, 125, 1)" stroke-width="1.5"></path><path d="M1388.7 653.29L1388.7 653.29" stroke="rgba(11, 49, 125, 1)" stroke-width="1.5"></path><path d="M1388.7 653.29L1555.13 677.55" stroke="rgba(11, 49, 125, 1)" stroke-width="1.5"></path><path d="M1388.7 653.29L1545.88 557.27" stroke="rgba(11, 49, 125, 1)" stroke-width="1.5"></path><path d="M1388.7 653.29L1145.35 546.23" stroke="rgba(11, 49, 125, 1)" stroke-width="1.5"></path><path d="M1590.55 -101.29L1590.55 -101.29" stroke="rgba(11, 49, 125, 1)" stroke-width="1.5"></path><path d="M1590.55 -101.29L1572.79 58.2" stroke="rgba(11, 49, 125, 1)" stroke-width="1.5"></path><path d="M1590.55 -101.29L1297.69 -55.91" stroke="rgba(11, 49, 125, 1)" stroke-width="1.5"></path><path d="M1572.79 58.2L1572.79 58.2" stroke="rgba(11, 49, 125, 1)" stroke-width="1.5"></path><path d="M1572.79 58.2L1586.23 261.34" stroke="rgba(11, 49, 125, 1)" stroke-width="1.5"></path><path d="M1572.79 58.2L1448.77 228.27" stroke="rgba(11, 49, 125, 1)" stroke-width="1.5"></path><path d="M1572.79 58.2L1297.69 -55.91" stroke="rgba(11, 49, 125, 1)" stroke-width="1.5"></path><path d="M1572.79 58.2L1553.41 360.01" stroke="rgba(11, 49, 125, 1)" stroke-width="1.5"></path><path d="M1586.23 261.34L1586.23 261.34" stroke="rgba(11, 49, 125, 1)" stroke-width="1.5"></path><path d="M1586.23 261.34L1553.41 360.01" stroke="rgba(11, 49, 125, 1)" stroke-width="1.5"></path><path d="M1553.41 360.01L1553.41 360.01" stroke="rgba(11, 49, 125, 1)" stroke-width="1.5"></path><path d="M1545.88 557.27L1545.88 557.27" stroke="rgba(11, 49, 125, 1)" stroke-width="1.5"></path><path d="M1545.88 557.27L1555.13 677.55" stroke="rgba(11, 49, 125, 1)" stroke-width="1.5"></path><path d="M1545.88 557.27L1553.41 360.01" stroke="rgba(11, 49, 125, 1)" stroke-width="1.5"></path><path d="M1545.88 557.27L1457.21 371.52" stroke="rgba(11, 49, 125, 1)" stroke-width="1.5"></path><path d="M1545.88 557.27L1306.66 513.84" stroke="rgba(11, 49, 125, 1)" stroke-width="1.5"></path><path d="M1555.13 677.55L1555.13 677.55" stroke="rgba(11, 49, 125, 1)" stroke-width="1.5"></path><circle r="5" cx="-61.97" cy="369.2" fill="rgba(11, 49, 125, 1)"></circle><circle r="5" cx="-60.73" cy="545.67" fill="rgba(11, 49, 125, 1)"></circle><circle r="5" cx="-105.97" cy="648.16" fill="rgba(11, 49, 125, 1)"></circle><circle r="5" cx="82.93" cy="526.47" fill="rgba(11, 49, 125, 1)"></circle><circle r="5" cx="67.45" cy="671.12" fill="rgba(11, 49, 125, 1)"></circle><circle r="5" cx="230.7" cy="406.84" fill="rgba(11, 49, 125, 1)"></circle><circle r="5" cx="246.33" cy="503.46" fill="rgba(11, 49, 125, 1)"></circle><circle r="5" cx="194.3" cy="643.26" fill="rgba(11, 49, 125, 1)"></circle><circle r="5" cx="340.4" cy="392.47" fill="rgba(11, 49, 125, 1)"></circle><circle r="5" cx="368.67" cy="511.4" fill="rgba(11, 49, 125, 1)"></circle><circle r="5" cx="493.25" cy="358.48" fill="rgba(11, 49, 125, 1)"></circle><circle r="5" cx="494.14" cy="500.54" fill="rgba(11, 49, 125, 1)"></circle><circle r="5" cx="520.13" cy="711.94" fill="rgba(11, 49, 125, 1)"></circle><circle r="5" cx="712.11" cy="220.2" fill="rgba(11, 49, 125, 1)"></circle><circle r="5" cx="658.33" cy="364.39" fill="rgba(11, 49, 125, 1)"></circle><circle r="5" cx="662.91" cy="529.74" fill="rgba(11, 49, 125, 1)"></circle><circle r="5" cx="686.34" cy="697.15" fill="rgba(11, 49, 125, 1)"></circle><circle r="5" cx="851.7" cy="65.79" fill="rgba(11, 49, 125, 1)"></circle><circle r="5" cx="804.67" cy="395.2" fill="rgba(11, 49, 125, 1)"></circle><circle r="5" cx="790.63" cy="492.33" fill="rgba(11, 49, 125, 1)"></circle><circle r="5" cx="841.16" cy="650.01" fill="rgba(11, 49, 125, 1)"></circle><circle r="5" cx="992.55" cy="-56.05" fill="rgba(11, 49, 125, 1)"></circle><circle r="5" cx="961.86" cy="47.94" fill="rgba(11, 49, 125, 1)"></circle><circle r="5" cx="1000.86" cy="396.01" fill="rgba(11, 49, 125, 1)"></circle><circle r="5" cx="993.79" cy="548.19" fill="rgba(11, 49, 125, 1)"></circle><circle r="5" cx="956.81" cy="670.6" fill="rgba(11, 49, 125, 1)"></circle><circle r="5" cx="1139.44" cy="55.87" fill="rgba(11, 49, 125, 1)"></circle><circle r="5" cx="1150.38" cy="200.88" fill="rgba(11, 49, 125, 1)"></circle><circle r="5" cx="1109.17" cy="407.52" fill="rgba(11, 49, 125, 1)"></circle><circle r="5" cx="1145.35" cy="546.23" fill="rgba(11, 49, 125, 1)"></circle><circle r="5" cx="1112" cy="692.03" fill="rgba(11, 49, 125, 1)"></circle><circle r="5" cx="1297.69" cy="-55.91" fill="rgba(11, 49, 125, 1)"></circle><circle r="5" cx="1241.59" cy="44.35" fill="rgba(11, 49, 125, 1)"></circle><circle r="5" cx="1240.74" cy="204.32" fill="rgba(11, 49, 125, 1)"></circle><circle r="5" cx="1309.22" cy="364.32" fill="rgba(11, 49, 125, 1)"></circle><circle r="5" cx="1306.66" cy="513.84" fill="rgba(11, 49, 125, 1)"></circle><circle r="5" cx="1250.63" cy="657.93" fill="rgba(11, 49, 125, 1)"></circle><circle r="5" cx="1449.32" cy="58.82" fill="rgba(11, 49, 125, 1)"></circle><circle r="5" cx="1448.77" cy="228.27" fill="rgba(11, 49, 125, 1)"></circle><circle r="5" cx="1457.21" cy="371.52" fill="rgba(11, 49, 125, 1)"></circle><circle r="5" cx="1388.7" cy="653.29" fill="rgba(11, 49, 125, 1)"></circle><circle r="5" cx="1590.55" cy="-101.29" fill="rgba(11, 49, 125, 1)"></circle><circle r="5" cx="1572.79" cy="58.2" fill="rgba(11, 49, 125, 1)"></circle><circle r="5" cx="1586.23" cy="261.34" fill="rgba(11, 49, 125, 1)"></circle><circle r="5" cx="1553.41" cy="360.01" fill="rgba(11, 49, 125, 1)"></circle><circle r="5" cx="1545.88" cy="557.27" fill="rgba(11, 49, 125, 1)"></circle><circle r="5" cx="1555.13" cy="677.55" fill="rgba(11, 49, 125, 1)"></circle><path d="M-84.77 546.87L-84.77 546.87" stroke="hsl(228.29999999999995, 63.9%, 36.7%)" stroke-width="1.5"></path><path d="M-84.77 546.87L-81.98 679.81" stroke="hsl(228.29999999999995, 63.9%, 36.7%)" stroke-width="1.5"></path><path d="M-84.77 546.87L58.85 530.72" stroke="hsl(228.29999999999995, 63.9%, 36.7%)" stroke-width="1.5"></path><path d="M-84.77 546.87L82.37 647.83" stroke="hsl(228.29999999999995, 63.9%, 36.7%)" stroke-width="1.5"></path><path d="M-84.77 546.87L201.54 543.14" stroke="hsl(228.29999999999995, 63.9%, 36.7%)" stroke-width="1.5"></path><path d="M-84.77 546.87L202.63 695.79" stroke="hsl(228.29999999999995, 63.9%, 36.7%)" stroke-width="1.5"></path><path d="M855.75 502.37L855.75 502.37" stroke="hsl(228.29999999999995, 63.9%, 36.7%)" stroke-width="1.5"></path><path d="M855.75 502.37L818.81 408.38" stroke="hsl(228.29999999999995, 63.9%, 36.7%)" stroke-width="1.5"></path><path d="M855.75 502.37L989.8 551.97" stroke="hsl(228.29999999999995, 63.9%, 36.7%)" stroke-width="1.5"></path><path d="M989.8 551.97L989.8 551.97" stroke="hsl(228.29999999999995, 63.9%, 36.7%)" stroke-width="1.5"></path><path d="M989.8 551.97L963.29 663.83" stroke="hsl(228.29999999999995, 63.9%, 36.7%)" stroke-width="1.5"></path><path d="M989.8 551.97L1121.63 503.08" stroke="hsl(228.29999999999995, 63.9%, 36.7%)" stroke-width="1.5"></path><path d="M989.8 551.97L974.61 342.34" stroke="hsl(228.29999999999995, 63.9%, 36.7%)" stroke-width="1.5"></path><path d="M1437.22 254.94L1437.22 254.94" stroke="hsl(228.29999999999995, 63.9%, 36.7%)" stroke-width="1.5"></path><path d="M1437.22 254.94L1460.81 363.34" stroke="hsl(228.29999999999995, 63.9%, 36.7%)" stroke-width="1.5"></path><path d="M1437.22 254.94L1269.66 252.21" stroke="hsl(228.29999999999995, 63.9%, 36.7%)" stroke-width="1.5"></path><path d="M1560.54 79.3L1560.54 79.3" stroke="hsl(228.29999999999995, 63.9%, 36.7%)" stroke-width="1.5"></path><path d="M1560.54 79.3L1572.95 -67.09" stroke="hsl(228.29999999999995, 63.9%, 36.7%)" stroke-width="1.5"></path><path d="M1560.54 79.3L1408.02 62.38" stroke="hsl(228.29999999999995, 63.9%, 36.7%)" stroke-width="1.5"></path><path d="M1560.54 79.3L1437.22 254.94" stroke="hsl(228.29999999999995, 63.9%, 36.7%)" stroke-width="1.5"></path><path d="M1560.54 79.3L1394.88 -97.27" stroke="hsl(228.29999999999995, 63.9%, 36.7%)" stroke-width="1.5"></path><path d="M1560.54 79.3L1460.81 363.34" stroke="hsl(228.29999999999995, 63.9%, 36.7%)" stroke-width="1.5"></path><path d="M-81.98 679.81L-81.98 679.81" stroke="hsl(228.29999999999995, 63.9%, 36.7%)" stroke-width="1.5"></path><path d="M-81.98 679.81L82.37 647.83" stroke="hsl(228.29999999999995, 63.9%, 36.7%)" stroke-width="1.5"></path><path d="M-81.98 679.81L58.85 530.72" stroke="hsl(228.29999999999995, 63.9%, 36.7%)" stroke-width="1.5"></path><path d="M58.85 530.72L58.85 530.72" stroke="hsl(228.29999999999995, 63.9%, 36.7%)" stroke-width="1.5"></path><path d="M58.85 530.72L82.37 647.83" stroke="hsl(228.29999999999995, 63.9%, 36.7%)" stroke-width="1.5"></path><path d="M58.85 530.72L201.54 543.14" stroke="hsl(228.29999999999995, 63.9%, 36.7%)" stroke-width="1.5"></path><path d="M82.37 647.83L82.37 647.83" stroke="hsl(228.29999999999995, 63.9%, 36.7%)" stroke-width="1.5"></path><path d="M82.37 647.83L202.63 695.79" stroke="hsl(228.29999999999995, 63.9%, 36.7%)" stroke-width="1.5"></path><path d="M82.37 647.83L201.54 543.14" stroke="hsl(228.29999999999995, 63.9%, 36.7%)" stroke-width="1.5"></path><path d="M201.54 543.14L201.54 543.14" stroke="hsl(228.29999999999995, 63.9%, 36.7%)" stroke-width="1.5"></path><path d="M202.63 695.79L202.63 695.79" stroke="hsl(228.29999999999995, 63.9%, 36.7%)" stroke-width="1.5"></path><path d="M202.63 695.79L201.54 543.14" stroke="hsl(228.29999999999995, 63.9%, 36.7%)" stroke-width="1.5"></path><path d="M202.63 695.79L400.65 695.51" stroke="hsl(228.29999999999995, 63.9%, 36.7%)" stroke-width="1.5"></path><path d="M202.63 695.79L58.85 530.72" stroke="hsl(228.29999999999995, 63.9%, 36.7%)" stroke-width="1.5"></path><path d="M384.21 531.71L384.21 531.71" stroke="hsl(228.29999999999995, 63.9%, 36.7%)" stroke-width="1.5"></path><path d="M384.21 531.71L530.74 559.79" stroke="hsl(228.29999999999995, 63.9%, 36.7%)" stroke-width="1.5"></path><path d="M400.65 695.51L400.65 695.51" stroke="hsl(228.29999999999995, 63.9%, 36.7%)" stroke-width="1.5"></path><path d="M400.65 695.51L538.73 644.22" stroke="hsl(228.29999999999995, 63.9%, 36.7%)" stroke-width="1.5"></path><path d="M400.65 695.51L384.21 531.71" stroke="hsl(228.29999999999995, 63.9%, 36.7%)" stroke-width="1.5"></path><path d="M400.65 695.51L530.74 559.79" stroke="hsl(228.29999999999995, 63.9%, 36.7%)" stroke-width="1.5"></path><path d="M530.74 559.79L530.74 559.79" stroke="hsl(228.29999999999995, 63.9%, 36.7%)" stroke-width="1.5"></path><path d="M530.74 559.79L538.73 644.22" stroke="hsl(228.29999999999995, 63.9%, 36.7%)" stroke-width="1.5"></path><path d="M530.74 559.79L659.76 495.29" stroke="hsl(228.29999999999995, 63.9%, 36.7%)" stroke-width="1.5"></path><path d="M538.73 644.22L538.73 644.22" stroke="hsl(228.29999999999995, 63.9%, 36.7%)" stroke-width="1.5"></path><path d="M538.73 644.22L384.21 531.71" stroke="hsl(228.29999999999995, 63.9%, 36.7%)" stroke-width="1.5"></path><path d="M705.28 401.94L705.28 401.94" stroke="hsl(228.29999999999995, 63.9%, 36.7%)" stroke-width="1.5"></path><path d="M705.28 401.94L659.76 495.29" stroke="hsl(228.29999999999995, 63.9%, 36.7%)" stroke-width="1.5"></path><path d="M705.28 401.94L818.81 408.38" stroke="hsl(228.29999999999995, 63.9%, 36.7%)" stroke-width="1.5"></path><path d="M705.28 401.94L855.75 502.37" stroke="hsl(228.29999999999995, 63.9%, 36.7%)" stroke-width="1.5"></path><path d="M705.28 401.94L530.74 559.79" stroke="hsl(228.29999999999995, 63.9%, 36.7%)" stroke-width="1.5"></path><path d="M705.28 401.94L974.61 342.34" stroke="hsl(228.29999999999995, 63.9%, 36.7%)" stroke-width="1.5"></path><path d="M659.76 495.29L659.76 495.29" stroke="hsl(228.29999999999995, 63.9%, 36.7%)" stroke-width="1.5"></path><path d="M659.76 495.29L818.81 408.38" stroke="hsl(228.29999999999995, 63.9%, 36.7%)" stroke-width="1.5"></path><path d="M818.81 408.38L818.81 408.38" stroke="hsl(228.29999999999995, 63.9%, 36.7%)" stroke-width="1.5"></path><path d="M818.81 408.38L974.61 342.34" stroke="hsl(228.29999999999995, 63.9%, 36.7%)" stroke-width="1.5"></path><path d="M818.81 408.38L989.8 551.97" stroke="hsl(228.29999999999995, 63.9%, 36.7%)" stroke-width="1.5"></path><path d="M1002.3 238.42L1002.3 238.42" stroke="hsl(228.29999999999995, 63.9%, 36.7%)" stroke-width="1.5"></path><path d="M1002.3 238.42L974.61 342.34" stroke="hsl(228.29999999999995, 63.9%, 36.7%)" stroke-width="1.5"></path><path d="M1002.3 238.42L1111.25 238.43" stroke="hsl(228.29999999999995, 63.9%, 36.7%)" stroke-width="1.5"></path><path d="M974.61 342.34L974.61 342.34" stroke="hsl(228.29999999999995, 63.9%, 36.7%)" stroke-width="1.5"></path><path d="M974.61 342.34L1118.89 359.63" stroke="hsl(228.29999999999995, 63.9%, 36.7%)" stroke-width="1.5"></path><path d="M974.61 342.34L1111.25 238.43" stroke="hsl(228.29999999999995, 63.9%, 36.7%)" stroke-width="1.5"></path><path d="M974.61 342.34L855.75 502.37" stroke="hsl(228.29999999999995, 63.9%, 36.7%)" stroke-width="1.5"></path><path d="M963.29 663.83L963.29 663.83" stroke="hsl(228.29999999999995, 63.9%, 36.7%)" stroke-width="1.5"></path><path d="M963.29 663.83L1141.44 699.6" stroke="hsl(228.29999999999995, 63.9%, 36.7%)" stroke-width="1.5"></path><path d="M963.29 663.83L855.75 502.37" stroke="hsl(228.29999999999995, 63.9%, 36.7%)" stroke-width="1.5"></path><path d="M963.29 663.83L1121.63 503.08" stroke="hsl(228.29999999999995, 63.9%, 36.7%)" stroke-width="1.5"></path><path d="M963.29 663.83L818.81 408.38" stroke="hsl(228.29999999999995, 63.9%, 36.7%)" stroke-width="1.5"></path><path d="M1133.92 92.91L1133.92 92.91" stroke="hsl(228.29999999999995, 63.9%, 36.7%)" stroke-width="1.5"></path><path d="M1133.92 92.91L1252.48 45.77" stroke="hsl(228.29999999999995, 63.9%, 36.7%)" stroke-width="1.5"></path><path d="M1133.92 92.91L1111.25 238.43" stroke="hsl(228.29999999999995, 63.9%, 36.7%)" stroke-width="1.5"></path><path d="M1133.92 92.91L1002.3 238.42" stroke="hsl(228.29999999999995, 63.9%, 36.7%)" stroke-width="1.5"></path><path d="M1111.25 238.43L1111.25 238.43" stroke="hsl(228.29999999999995, 63.9%, 36.7%)" stroke-width="1.5"></path><path d="M1111.25 238.43L1118.89 359.63" stroke="hsl(228.29999999999995, 63.9%, 36.7%)" stroke-width="1.5"></path><path d="M1118.89 359.63L1118.89 359.63" stroke="hsl(228.29999999999995, 63.9%, 36.7%)" stroke-width="1.5"></path><path d="M1118.89 359.63L1121.63 503.08" stroke="hsl(228.29999999999995, 63.9%, 36.7%)" stroke-width="1.5"></path><path d="M1121.63 503.08L1121.63 503.08" stroke="hsl(228.29999999999995, 63.9%, 36.7%)" stroke-width="1.5"></path><path d="M1121.63 503.08L1264.16 399.01" stroke="hsl(228.29999999999995, 63.9%, 36.7%)" stroke-width="1.5"></path><path d="M1121.63 503.08L1307.63 525.53" stroke="hsl(228.29999999999995, 63.9%, 36.7%)" stroke-width="1.5"></path><path d="M1121.63 503.08L1141.44 699.6" stroke="hsl(228.29999999999995, 63.9%, 36.7%)" stroke-width="1.5"></path><path d="M1141.44 699.6L1141.44 699.6" stroke="hsl(228.29999999999995, 63.9%, 36.7%)" stroke-width="1.5"></path><path d="M1141.44 699.6L1305.5 691.06" stroke="hsl(228.29999999999995, 63.9%, 36.7%)" stroke-width="1.5"></path><path d="M1141.44 699.6L989.8 551.97" stroke="hsl(228.29999999999995, 63.9%, 36.7%)" stroke-width="1.5"></path><path d="M1281.47 -73.25L1281.47 -73.25" stroke="hsl(228.29999999999995, 63.9%, 36.7%)" stroke-width="1.5"></path><path d="M1281.47 -73.25L1394.88 -97.27" stroke="hsl(228.29999999999995, 63.9%, 36.7%)" stroke-width="1.5"></path><path d="M1281.47 -73.25L1252.48 45.77" stroke="hsl(228.29999999999995, 63.9%, 36.7%)" stroke-width="1.5"></path><path d="M1281.47 -73.25L1408.02 62.38" stroke="hsl(228.29999999999995, 63.9%, 36.7%)" stroke-width="1.5"></path><path d="M1281.47 -73.25L1133.92 92.91" stroke="hsl(228.29999999999995, 63.9%, 36.7%)" stroke-width="1.5"></path><path d="M1281.47 -73.25L1572.95 -67.09" stroke="hsl(228.29999999999995, 63.9%, 36.7%)" stroke-width="1.5"></path><path d="M1281.47 -73.25L1560.54 79.3" stroke="hsl(228.29999999999995, 63.9%, 36.7%)" stroke-width="1.5"></path><path d="M1252.48 45.77L1252.48 45.77" stroke="hsl(228.29999999999995, 63.9%, 36.7%)" stroke-width="1.5"></path><path d="M1252.48 45.77L1408.02 62.38" stroke="hsl(228.29999999999995, 63.9%, 36.7%)" stroke-width="1.5"></path><path d="M1252.48 45.77L1394.88 -97.27" stroke="hsl(228.29999999999995, 63.9%, 36.7%)" stroke-width="1.5"></path><path d="M1269.66 252.21L1269.66 252.21" stroke="hsl(228.29999999999995, 63.9%, 36.7%)" stroke-width="1.5"></path><path d="M1269.66 252.21L1264.16 399.01" stroke="hsl(228.29999999999995, 63.9%, 36.7%)" stroke-width="1.5"></path><path d="M1269.66 252.21L1111.25 238.43" stroke="hsl(228.29999999999995, 63.9%, 36.7%)" stroke-width="1.5"></path><path d="M1264.16 399.01L1264.16 399.01" stroke="hsl(228.29999999999995, 63.9%, 36.7%)" stroke-width="1.5"></path><path d="M1264.16 399.01L1307.63 525.53" stroke="hsl(228.29999999999995, 63.9%, 36.7%)" stroke-width="1.5"></path><path d="M1307.63 525.53L1307.63 525.53" stroke="hsl(228.29999999999995, 63.9%, 36.7%)" stroke-width="1.5"></path><path d="M1307.63 525.53L1450.66 488.76" stroke="hsl(228.29999999999995, 63.9%, 36.7%)" stroke-width="1.5"></path><path d="M1307.63 525.53L1305.5 691.06" stroke="hsl(228.29999999999995, 63.9%, 36.7%)" stroke-width="1.5"></path><path d="M1305.5 691.06L1305.5 691.06" stroke="hsl(228.29999999999995, 63.9%, 36.7%)" stroke-width="1.5"></path><path d="M1305.5 691.06L1426.48 642.07" stroke="hsl(228.29999999999995, 63.9%, 36.7%)" stroke-width="1.5"></path><path d="M1305.5 691.06L1450.66 488.76" stroke="hsl(228.29999999999995, 63.9%, 36.7%)" stroke-width="1.5"></path><path d="M1394.88 -97.27L1394.88 -97.27" stroke="hsl(228.29999999999995, 63.9%, 36.7%)" stroke-width="1.5"></path><path d="M1394.88 -97.27L1408.02 62.38" stroke="hsl(228.29999999999995, 63.9%, 36.7%)" stroke-width="1.5"></path><path d="M1394.88 -97.27L1572.95 -67.09" stroke="hsl(228.29999999999995, 63.9%, 36.7%)" stroke-width="1.5"></path><path d="M1408.02 62.38L1408.02 62.38" stroke="hsl(228.29999999999995, 63.9%, 36.7%)" stroke-width="1.5"></path><path d="M1460.81 363.34L1460.81 363.34" stroke="hsl(228.29999999999995, 63.9%, 36.7%)" stroke-width="1.5"></path><path d="M1460.81 363.34L1554.82 412.45" stroke="hsl(228.29999999999995, 63.9%, 36.7%)" stroke-width="1.5"></path><path d="M1460.81 363.34L1450.66 488.76" stroke="hsl(228.29999999999995, 63.9%, 36.7%)" stroke-width="1.5"></path><path d="M1450.66 488.76L1450.66 488.76" stroke="hsl(228.29999999999995, 63.9%, 36.7%)" stroke-width="1.5"></path><path d="M1450.66 488.76L1554.82 412.45" stroke="hsl(228.29999999999995, 63.9%, 36.7%)" stroke-width="1.5"></path><path d="M1426.48 642.07L1426.48 642.07" stroke="hsl(228.29999999999995, 63.9%, 36.7%)" stroke-width="1.5"></path><path d="M1426.48 642.07L1567.86 705.35" stroke="hsl(228.29999999999995, 63.9%, 36.7%)" stroke-width="1.5"></path><path d="M1426.48 642.07L1450.66 488.76" stroke="hsl(228.29999999999995, 63.9%, 36.7%)" stroke-width="1.5"></path><path d="M1426.48 642.07L1307.63 525.53" stroke="hsl(228.29999999999995, 63.9%, 36.7%)" stroke-width="1.5"></path><path d="M1426.48 642.07L1585.76 534.08" stroke="hsl(228.29999999999995, 63.9%, 36.7%)" stroke-width="1.5"></path><path d="M1426.48 642.07L1554.82 412.45" stroke="hsl(228.29999999999995, 63.9%, 36.7%)" stroke-width="1.5"></path><path d="M1572.95 -67.09L1572.95 -67.09" stroke="hsl(228.29999999999995, 63.9%, 36.7%)" stroke-width="1.5"></path><path d="M1572.95 -67.09L1408.02 62.38" stroke="hsl(228.29999999999995, 63.9%, 36.7%)" stroke-width="1.5"></path><path d="M1572.95 -67.09L1252.48 45.77" stroke="hsl(228.29999999999995, 63.9%, 36.7%)" stroke-width="1.5"></path><path d="M1554.82 412.45L1554.82 412.45" stroke="hsl(228.29999999999995, 63.9%, 36.7%)" stroke-width="1.5"></path><path d="M1554.82 412.45L1585.76 534.08" stroke="hsl(228.29999999999995, 63.9%, 36.7%)" stroke-width="1.5"></path><path d="M1585.76 534.08L1585.76 534.08" stroke="hsl(228.29999999999995, 63.9%, 36.7%)" stroke-width="1.5"></path><path d="M1585.76 534.08L1450.66 488.76" stroke="hsl(228.29999999999995, 63.9%, 36.7%)" stroke-width="1.5"></path><path d="M1585.76 534.08L1567.86 705.35" stroke="hsl(228.29999999999995, 63.9%, 36.7%)" stroke-width="1.5"></path><path d="M1585.76 534.08L1460.81 363.34" stroke="hsl(228.29999999999995, 63.9%, 36.7%)" stroke-width="1.5"></path><path d="M1567.86 705.35L1567.86 705.35" stroke="hsl(228.29999999999995, 63.9%, 36.7%)" stroke-width="1.5"></path><path d="M1567.86 705.35L1450.66 488.76" stroke="hsl(228.29999999999995, 63.9%, 36.7%)" stroke-width="1.5"></path><path d="M1567.86 705.35L1305.5 691.06" stroke="hsl(228.29999999999995, 63.9%, 36.7%)" stroke-width="1.5"></path><path d="M1567.86 705.35L1554.82 412.45" stroke="hsl(228.29999999999995, 63.9%, 36.7%)" stroke-width="1.5"></path><circle r="25" cx="-84.77" cy="546.87" fill="url(#SvgjsRadialGradient1297)"></circle><circle r="25" cx="855.75" cy="502.37" fill="url(#SvgjsRadialGradient1297)"></circle><circle r="25" cx="989.8" cy="551.97" fill="url(#SvgjsRadialGradient1297)"></circle><circle r="25" cx="1437.22" cy="254.94" fill="url(#SvgjsRadialGradient1297)"></circle><circle r="25" cx="1560.54" cy="79.3" fill="url(#SvgjsRadialGradient1297)"></circle><circle r="5" cx="-81.98" cy="679.81" fill="#8d96bb"></circle><circle r="5" cx="58.85" cy="530.72" fill="#8d96bb"></circle><circle r="5" cx="82.37" cy="647.83" fill="#8d96bb"></circle><circle r="5" cx="201.54" cy="543.14" fill="#8d96bb"></circle><circle r="5" cx="202.63" cy="695.79" fill="#8d96bb"></circle><circle r="5" cx="384.21" cy="531.71" fill="#8d96bb"></circle><circle r="5" cx="400.65" cy="695.51" fill="#8d96bb"></circle><circle r="5" cx="530.74" cy="559.79" fill="#8d96bb"></circle><circle r="5" cx="538.73" cy="644.22" fill="#8d96bb"></circle><circle r="5" cx="705.28" cy="401.94" fill="#8d96bb"></circle><circle r="5" cx="659.76" cy="495.29" fill="#8d96bb"></circle><circle r="5" cx="818.81" cy="408.38" fill="#8d96bb"></circle><circle r="5" cx="1002.3" cy="238.42" fill="#8d96bb"></circle><circle r="5" cx="974.61" cy="342.34" fill="#8d96bb"></circle><circle r="5" cx="963.29" cy="663.83" fill="#8d96bb"></circle><circle r="5" cx="1133.92" cy="92.91" fill="#8d96bb"></circle><circle r="5" cx="1111.25" cy="238.43" fill="#8d96bb"></circle><circle r="5" cx="1118.89" cy="359.63" fill="#8d96bb"></circle><circle r="5" cx="1121.63" cy="503.08" fill="#8d96bb"></circle><circle r="5" cx="1141.44" cy="699.6" fill="#8d96bb"></circle><circle r="5" cx="1281.47" cy="-73.25" fill="#8d96bb"></circle><circle r="5" cx="1252.48" cy="45.77" fill="#8d96bb"></circle><circle r="5" cx="1269.66" cy="252.21" fill="#8d96bb"></circle><circle r="5" cx="1264.16" cy="399.01" fill="#8d96bb"></circle><circle r="5" cx="1307.63" cy="525.53" fill="#8d96bb"></circle><circle r="5" cx="1305.5" cy="691.06" fill="#8d96bb"></circle><circle r="5" cx="1394.88" cy="-97.27" fill="#8d96bb"></circle><circle r="5" cx="1408.02" cy="62.38" fill="#8d96bb"></circle><circle r="5" cx="1460.81" cy="363.34" fill="#8d96bb"></circle><circle r="5" cx="1450.66" cy="488.76" fill="#8d96bb"></circle><circle r="5" cx="1426.48" cy="642.07" fill="#8d96bb"></circle><circle r="5" cx="1572.95" cy="-67.09" fill="#8d96bb"></circle><circle r="5" cx="1554.82" cy="412.45" fill="#8d96bb"></circle><circle r="5" cx="1585.76" cy="534.08" fill="#8d96bb"></circle><circle r="5" cx="1567.86" cy="705.35" fill="#8d96bb"></circle></g><defs><mask id="SvgjsMask1295"><rect width="1440" height="570" fill="#ffffff"></rect></mask><radialGradient cx="100%" cy="50%" r="1467.93" gradientUnits="userSpaceOnUse" id="SvgjsRadialGradient1296"><stop stop-color="rgba(4, 48, 93, 1)" offset="0.61"></stop><stop stop-color="rgba(18, 21, 47, 1)" offset="1"></stop></radialGradient><radialGradient id="SvgjsRadialGradient1297"><stop stop-color="#ffffff" offset="0.1"></stop><stop stop-color="rgba(26, 44, 118, 1)" offset="0.2"></stop><stop stop-color="rgba(26, 44, 118, 0)" offset="1"></stop></radialGradient></defs></svg>